<?xml version="1.0" encoding="UTF-8" standalone="no"?>
<!-- Created with Inkscape (http://www.inkscape.org/) -->
<svg
   xmlns:dc="http://purl.org/dc/elements/1.1/"
   xmlns:cc="http://creativecommons.org/ns#"
   xmlns:rdf="http://www.w3.org/1999/02/22-rdf-syntax-ns#"
   xmlns:svg="http://www.w3.org/2000/svg"
   xmlns="http://www.w3.org/2000/svg"
   xmlns:sodipodi="http://sodipodi.sourceforge.net/DTD/sodipodi-0.dtd"
   xmlns:inkscape="http://www.inkscape.org/namespaces/inkscape"
   id="svg2"
   sodipodi:version="0.32"
   inkscape:version="0.46"
   width="144"
   height="106"
   xml:space="preserve"
   sodipodi:docname="Université de Strathclyde.svg"
   inkscape:output_extension="org.inkscape.output.svg.inkscape"
   version="1.0"><metadata
     id="metadata7"><rdf:RDF><cc:Work
         rdf:about=""><dc:format>image/svg+xml</dc:format><dc:type
           rdf:resource="http://purl.org/dc/dcmitype/StillImage" /></cc:Work></rdf:RDF></metadata><defs
     id="defs5"><inkscape:perspective
       sodipodi:type="inkscape:persp3d"
       inkscape:vp_x="0 : 526.18109 : 1"
       inkscape:vp_y="0 : 1000 : 0"
       inkscape:vp_z="744.09448 : 526.18109 : 1"
       inkscape:persp3d-origin="372.04724 : 350.78739 : 1"
       id="perspective9" /></defs><sodipodi:namedview
     inkscape:window-height="712"
     inkscape:window-width="1024"
     inkscape:pageshadow="2"
     inkscape:pageopacity="0.0"
     guidetolerance="10.0"
     gridtolerance="10.0"
     objecttolerance="10.0"
     borderopacity="1.0"
     bordercolor="#666666"
     pagecolor="#ffffff"
     id="base"
     showgrid="false"
     inkscape:zoom="3.8747826"
     inkscape:cx="71.875"
     inkscape:cy="52.5"
     inkscape:window-x="-4"
     inkscape:window-y="-4"
     inkscape:current-layer="g11" /><g
     id="g11"
     inkscape:groupmode="layer"
     inkscape:label="eps_25838_en"
     transform="matrix(1.25,0,0,-1.25,0,105)"><g
       id="g13"
       transform="scale(0.1,0.1)"><path
         d="M 686.648,563.199 L 910.625,400.293 L 910.586,400.332 L 910.723,400.312 L 1134,562.512 L 1134.06,562.676 L 1048.78,825.16 L 774.297,825.219 L 772.734,825.242 L 686.719,563.484 L 686.648,563.199"
         style="fill:none;stroke:#231f20;stroke-width:14.20470047;stroke-linecap:round;stroke-linejoin:round;stroke-miterlimit:4;stroke-dasharray:none;stroke-opacity:1"
         id="path15" /><path
         d="M 1048.78,825.16 L 774.297,825.219 L 772.734,825.242 L 686.719,563.484 L 686.648,563.199 L 910.625,400.293 L 910.586,400.332 L 910.723,400.312 L 1134,562.512 L 1134.06,562.676 L 1048.78,825.16"
         style="fill:#ffffff;fill-opacity:1;fill-rule:nonzero;stroke:none"
         id="path17" /><path
         d="M 1048.78,825.16 L 774.297,825.219 L 772.734,825.242 L 686.719,563.484 L 686.648,563.199 L 910.625,400.293 L 910.586,400.332 L 910.723,400.312 L 1134,562.512 L 1134.06,562.676 L 1048.78,825.16 z"
         style="fill:none;stroke:#231f20;stroke-width:2.8958199;stroke-linecap:butt;stroke-linejoin:miter;stroke-miterlimit:4;stroke-dasharray:none;stroke-opacity:1"
         id="path19" /><path
         d="M 1069.51,706.992 L 1102.85,603.301 L 1103.52,602.07 C 1114.73,567.949 1080.86,544.273 1080.86,544.273 L 946.348,445.719 L 944.492,444.578 C 932.656,435.914 919.375,433.062 910.078,433.062 L 910.078,707.164 L 1069.51,706.992"
         style="fill:#1a5dad;fill-opacity:1;fill-rule:nonzero;stroke:none"
         id="path21" /><path
         d="M 751.777,706.992 L 773.789,775.414 C 773.789,775.414 779.609,809.176 822.727,809.176 L 825.586,809.137 L 1004.12,808.805 C 1004.12,808.805 1035.79,812.688 1048.48,772.98 L 1048.91,771.215 L 1069.51,707.02 L 751.777,706.992"
         style="fill:#bf9904;fill-opacity:1;fill-rule:nonzero;stroke:none"
         id="path23" /><path
         d="M 751.777,706.992 L 718.438,603.301 L 717.754,602.07 C 706.562,567.949 740.43,544.273 740.43,544.273 L 874.941,445.719 L 876.797,444.578 C 888.672,435.914 901.934,433.062 911.25,433.062 L 911.25,707.164 L 751.777,706.992"
         style="fill:#ed1248;fill-opacity:1;fill-rule:nonzero;stroke:none"
         id="path25" /><path
         d="M 910.586,706.523 L 910.586,433.207"
         style="fill:none;stroke:#231f20;stroke-width:4.62244987;stroke-linecap:butt;stroke-linejoin:miter;stroke-miterlimit:4;stroke-dasharray:none;stroke-opacity:1"
         id="path27" /><path
         d="M 909.316,563.484 L 1009.56,494.02 L 1047.23,520.84 L 946.719,589.398 L 1077.2,682.578 L 1068.94,707.105 L 1037.5,707.477 L 909.773,617.766 L 781.191,707.477 L 751.953,707.105 L 744.375,682.578 L 869.668,590.805 L 771.836,521.199 L 809.141,494.02 L 909.316,563.484"
         style="fill:#ffffff;fill-opacity:1;fill-rule:nonzero;stroke:none"
         id="path29" /><path
         d="M 909.316,563.484 L 1009.56,494.02 L 1047.23,520.84 L 946.719,589.398 L 1077.2,682.578 L 1068.94,707.105 L 1037.5,707.477 L 909.773,617.766 L 781.191,707.477 L 751.953,707.105 L 744.375,682.578 L 869.668,590.805 L 771.836,521.199 L 809.141,494.02 L 909.316,563.484 z"
         style="fill:none;stroke:#231f20;stroke-width:3.61907005;stroke-linecap:butt;stroke-linejoin:miter;stroke-miterlimit:4;stroke-dasharray:none;stroke-opacity:1"
         id="path31" /><path
         d="M 764.656,611.719 C 766.438,613.355 773.926,619.02 766.133,622.875 C 750.371,630.59 762.969,640.332 769.375,641.738 C 775.801,643.113 775.996,647.125 775.996,647.125 C 775.996,647.125 775.801,643.113 782.02,641.035 C 788.262,639 799.766,628.035 783.281,621.977 C 775.098,618.945 783.066,610.055 785.234,608.895 C 787.402,607.742 795.918,603.988 796.875,612.727 C 798.75,630.113 812.188,621.605 815.703,616.047 C 819.199,610.508 823.047,611.684 823.047,611.684 C 823.047,611.684 819.199,610.508 819.395,603.953 C 819.57,597.418 813.086,581.418 801.77,594.801 C 796.113,601.484 791.855,593.438 791.484,590.996 C 791.16,588.578 789.855,577.93 798.359,579.996 C 815.371,584.18 811.941,568.625 807.969,563.445 C 803.945,558.242 806.367,555.035 806.367,555.035 C 806.367,555.035 803.945,558.242 797.844,555.844 C 791.758,553.395 775.879,554.387 784.57,569.586 C 788.906,577.219 778.84,577.961 776.406,578.262 L 775,578.324 C 772.598,577.832 764.727,576.379 769.609,569.125 C 779.355,554.543 763.484,554.148 757.227,556.188 C 750.977,558.16 746.758,555.918 746.758,555.918 L 746.758,555.918 C 746.758,555.918 748.926,559.27 746.633,563.035 C 743.223,568.656 737.734,583.219 755.039,580.23 C 763.691,578.77 762.969,589.855 762.461,592.266 L 761.992,594.285 C 760.703,596.352 755.82,605.551 750.652,598.484 C 740.273,584.336 732.93,598.434 732.695,604.977 C 732.422,611.543 728.484,612.465 728.484,612.465 C 728.484,612.465 732.422,611.543 735.527,617.309 C 738.633,623.082 751.445,632.555 754.531,615.273 C 756.094,606.672 761.941,609.574 764.004,610.867 L 764.656,611.719"
         style="fill:#ffffff;fill-opacity:1;fill-rule:nonzero;stroke:none"
         id="path33" /><path
         d="M 764.656,611.719 C 766.438,613.355 773.926,619.02 766.133,622.875 C 750.371,630.59 762.969,640.332 769.375,641.738 C 775.801,643.113 775.996,647.125 775.996,647.125 C 775.996,647.125 775.801,643.113 782.02,641.035 C 788.262,639 799.766,628.035 783.281,621.977 C 775.098,618.945 783.066,610.055 785.234,608.895 C 787.402,607.742 795.918,603.988 796.875,612.727 C 798.75,630.113 812.188,621.605 815.703,616.047 C 819.199,610.508 823.047,611.684 823.047,611.684 C 823.047,611.684 819.199,610.508 819.395,603.953 C 819.57,597.418 813.086,581.418 801.77,594.801 C 796.113,601.484 791.855,593.438 791.484,590.996 C 791.16,588.578 789.855,577.93 798.359,579.996 C 815.371,584.18 811.941,568.625 807.969,563.445 C 803.945,558.242 806.367,555.035 806.367,555.035 C 806.367,555.035 803.945,558.242 797.844,555.844 C 791.758,553.395 775.879,554.387 784.57,569.586 C 788.906,577.219 778.84,577.961 776.406,578.262 L 775,578.324 C 772.598,577.832 764.727,576.379 769.609,569.125 C 779.355,554.543 763.484,554.148 757.227,556.188 C 750.977,558.16 746.758,555.918 746.758,555.918 L 746.758,555.918 C 746.758,555.918 748.926,559.27 746.633,563.035 C 743.223,568.656 737.734,583.219 755.039,580.23 C 763.691,578.77 762.969,589.855 762.461,592.266 L 761.992,594.285 C 760.703,596.352 755.82,605.551 750.652,598.484 C 740.273,584.336 732.93,598.434 732.695,604.977 C 732.422,611.543 728.484,612.465 728.484,612.465 C 728.484,612.465 732.422,611.543 735.527,617.309 C 738.633,623.082 751.445,632.555 754.531,615.273 C 756.094,606.672 761.941,609.574 764.004,610.867 L 764.656,611.719 z"
         style="fill:none;stroke:#231f20;stroke-width:2.44605994;stroke-linecap:butt;stroke-linejoin:miter;stroke-miterlimit:4;stroke-dasharray:none;stroke-opacity:1"
         id="path35" /><path
         d="M 776.953,588.004 C 781.418,587.777 785.281,591.559 785.52,596.52 C 785.781,601.465 782.363,605.621 777.891,605.867 C 773.359,606.105 769.512,602.281 769.27,597.375 C 769.004,592.434 772.449,588.223 776.953,588.004"
         style="fill:#ffffff;fill-opacity:1;fill-rule:nonzero;stroke:none"
         id="path37" /><path
         d="M 776.953,588.004 C 781.418,587.777 785.281,591.559 785.52,596.52 C 785.781,601.465 782.363,605.621 777.891,605.867 C 773.359,606.105 769.512,602.281 769.27,597.375 C 769.004,592.434 772.449,588.223 776.953,588.004 z"
         style="fill:none;stroke:#231f20;stroke-width:2.44511008;stroke-linecap:butt;stroke-linejoin:miter;stroke-miterlimit:4;stroke-dasharray:none;stroke-opacity:1"
         id="path39" /><path
         d="M 775.391,626.84 C 778.418,626.676 780.984,629.016 781.133,632.031 C 781.289,635.035 778.965,637.66 775.918,637.789 C 772.922,637.953 770.332,635.625 770.176,632.605 C 770.02,629.578 772.344,626.992 775.391,626.84"
         style="fill:#ffffff;fill-opacity:1;fill-rule:nonzero;stroke:none"
         id="path41" /><path
         d="M 775.391,626.84 C 778.418,626.676 780.984,629.016 781.133,632.031 C 781.289,635.035 778.965,637.66 775.918,637.789 C 772.922,637.953 770.332,635.625 770.176,632.605 C 770.02,629.578 772.344,626.992 775.391,626.84 z"
         style="fill:none;stroke:#231f20;stroke-width:2.44511008;stroke-linecap:butt;stroke-linejoin:miter;stroke-miterlimit:4;stroke-dasharray:none;stroke-opacity:1"
         id="path43" /><path
         d="M 743.535,602.008 C 746.543,601.852 749.141,604.156 749.297,607.191 C 749.453,610.25 747.156,612.836 744.109,612.973 C 741.055,613.125 738.477,610.801 738.32,607.77 C 738.184,604.742 740.508,602.145 743.535,602.008"
         style="fill:#ffffff;fill-opacity:1;fill-rule:nonzero;stroke:none"
         id="path45" /><path
         d="M 743.535,602.008 C 746.543,601.852 749.141,604.156 749.297,607.191 C 749.453,610.25 747.156,612.836 744.109,612.973 C 741.055,613.125 738.477,610.801 738.32,607.77 C 738.184,604.742 740.508,602.145 743.535,602.008 z"
         style="fill:none;stroke:#231f20;stroke-width:2.44511008;stroke-linecap:butt;stroke-linejoin:miter;stroke-miterlimit:4;stroke-dasharray:none;stroke-opacity:1"
         id="path47" /><path
         d="M 809.141,600.293 C 812.168,600.129 814.746,602.457 814.883,605.5 C 815.066,608.512 812.734,611.074 809.688,611.277 C 806.672,611.418 804.082,609.105 803.945,606.074 C 803.77,603.031 806.074,600.461 809.141,600.293"
         style="fill:#ffffff;fill-opacity:1;fill-rule:nonzero;stroke:none"
         id="path49" /><path
         d="M 809.141,600.293 C 812.168,600.129 814.746,602.457 814.883,605.5 C 815.066,608.512 812.734,611.074 809.688,611.277 C 806.672,611.418 804.082,609.105 803.945,606.074 C 803.77,603.031 806.074,600.461 809.141,600.293 z"
         style="fill:none;stroke:#231f20;stroke-width:2.44511008;stroke-linecap:butt;stroke-linejoin:miter;stroke-miterlimit:4;stroke-dasharray:none;stroke-opacity:1"
         id="path51" /><path
         d="M 796.113,560.637 C 799.16,560.484 801.719,562.797 801.875,565.84 C 802.043,568.855 799.727,571.461 796.672,571.602 C 793.645,571.781 791.062,569.453 790.898,566.422 C 790.742,563.375 793.074,560.781 796.113,560.637"
         style="fill:#ffffff;fill-opacity:1;fill-rule:nonzero;stroke:none"
         id="path53" /><path
         d="M 796.113,560.637 C 799.16,560.484 801.719,562.797 801.875,565.84 C 802.043,568.855 799.727,571.461 796.672,571.602 C 793.645,571.781 791.062,569.453 790.898,566.422 C 790.742,563.375 793.074,560.781 796.113,560.637 z"
         style="fill:none;stroke:#231f20;stroke-width:2.44511008;stroke-linecap:butt;stroke-linejoin:miter;stroke-miterlimit:4;stroke-dasharray:none;stroke-opacity:1"
         id="path55" /><path
         d="M 756.191,562.742 C 759.238,562.566 761.77,564.934 761.895,567.949 C 762.109,570.961 759.766,573.539 756.738,573.715 C 753.73,573.863 751.133,571.543 750.977,568.512 C 750.793,565.5 753.164,562.898 756.191,562.742"
         style="fill:#ffffff;fill-opacity:1;fill-rule:nonzero;stroke:none"
         id="path57" /><path
         d="M 756.191,562.742 C 759.238,562.566 761.77,564.934 761.895,567.949 C 762.109,570.961 759.766,573.539 756.738,573.715 C 753.73,573.863 751.133,571.543 750.977,568.512 C 750.793,565.5 753.164,562.898 756.191,562.742 z"
         style="fill:none;stroke:#231f20;stroke-width:2.44511008;stroke-linecap:butt;stroke-linejoin:miter;stroke-miterlimit:4;stroke-dasharray:none;stroke-opacity:1"
         id="path59" /><path
         d="M 743.605,605.551 C 746.289,605.434 748.633,607.543 748.75,610.25 C 748.918,612.973 746.824,615.305 744.082,615.453 C 741.355,615.562 739.062,613.496 738.906,610.758 C 738.77,608.047 740.852,605.738 743.605,605.551"
         style="fill:#ffffff;fill-opacity:1;fill-rule:nonzero;stroke:none"
         id="path61" /><path
         d="M 809.18,603.852 C 811.914,603.723 814.199,605.785 814.363,608.539 C 814.512,611.277 812.402,613.609 809.688,613.73 C 806.973,613.855 804.648,611.793 804.492,609.062 C 804.375,606.324 806.438,603.992 809.18,603.852"
         style="fill:#ffffff;fill-opacity:1;fill-rule:nonzero;stroke:none"
         id="path63" /><path
         d="M 796.016,563.637 C 798.684,563.484 801.035,565.566 801.16,568.305 C 801.328,571.023 799.238,573.359 796.484,573.512 C 793.75,573.625 791.426,571.543 791.301,568.812 C 791.16,566.105 793.223,563.762 796.016,563.637"
         style="fill:#ffffff;fill-opacity:1;fill-rule:nonzero;stroke:none"
         id="path65" /><path
         d="M 756.211,565.453 C 758.918,565.316 761.25,567.41 761.387,570.121 C 761.543,572.859 759.434,575.191 756.719,575.348 C 754.004,575.48 751.68,573.375 751.562,570.66 C 751.395,567.949 753.496,565.59 756.211,565.453"
         style="fill:#ffffff;fill-opacity:1;fill-rule:nonzero;stroke:none"
         id="path67" /><path
         d="M 777.148,591.848 C 781.484,591.602 785.176,594.938 785.391,599.25 C 785.605,603.555 782.285,607.262 777.969,607.496 C 773.652,607.719 769.961,604.41 769.746,600.09 C 769.512,595.746 772.832,592.062 777.148,591.848"
         style="fill:#ffffff;fill-opacity:1;fill-rule:nonzero;stroke:none"
         id="path69" /><path
         d="M 880.469,644.723 C 880.469,640.004 893.953,636.094 910.586,636.094 C 927.227,636.094 940.703,640.004 940.703,644.723"
         style="fill:#bf9904;fill-opacity:1;fill-rule:nonzero;stroke:none"
         id="path71" /><path
         d="M 880.469,644.723 C 880.469,640.004 893.953,636.094 910.586,636.094 C 927.227,636.094 940.703,640.004 940.703,644.723"
         style="fill:none;stroke:#231f20;stroke-width:2.55755997;stroke-linecap:butt;stroke-linejoin:miter;stroke-miterlimit:4;stroke-dasharray:none;stroke-opacity:1"
         id="path73" /><path
         d="M 880.469,644.723 L 880.469,655 L 880.527,656.527 C 880.527,675.559 860,691.125 860,691.125 C 891.191,686.938 888.145,660.699 888.145,660.699 C 888.145,683.516 881.301,701.41 881.301,701.41 C 902.988,697.602 901.074,664.117 901.074,664.117 C 899.18,692.27 910.188,703.301 910.188,703.301 C 910.188,703.301 921.211,692.27 919.336,664.117 C 919.336,664.117 917.441,697.602 939.133,701.41 C 939.133,701.41 932.266,683.516 932.266,660.699 C 932.266,660.699 929.219,686.938 960.422,691.125 C 960.422,691.125 938.711,675.543 939.863,656.527 L 940.703,655 L 940.703,644.723"
         style="fill:#bf9904;fill-opacity:1;fill-rule:nonzero;stroke:none"
         id="path75" /><path
         d="M 880.469,644.723 L 880.469,655 L 880.527,656.527 C 880.527,675.559 860,691.125 860,691.125 C 891.191,686.938 888.145,660.699 888.145,660.699 C 888.145,683.516 881.301,701.41 881.301,701.41 C 902.988,697.602 901.074,664.117 901.074,664.117 C 899.18,692.27 910.188,703.301 910.188,703.301 C 910.188,703.301 921.211,692.27 919.336,664.117 C 919.336,664.117 917.441,697.602 939.133,701.41 C 939.133,701.41 932.266,683.516 932.266,660.699 C 932.266,660.699 929.219,686.938 960.422,691.125 C 960.422,691.125 938.711,675.543 939.863,656.527 L 940.703,655 L 940.703,644.723"
         style="fill:none;stroke:#231f20;stroke-width:2.55755997;stroke-linecap:butt;stroke-linejoin:miter;stroke-miterlimit:4;stroke-dasharray:none;stroke-opacity:1"
         id="path77" /><path
         d="M 880.469,645.293 L 880.469,655.562 C 880.469,660.344 893.953,664.199 910.586,664.199 C 927.227,664.199 940.703,660.344 940.703,655.562 L 940.703,645.293"
         style="fill:none;stroke:#231f20;stroke-width:2.55755997;stroke-linecap:butt;stroke-linejoin:miter;stroke-miterlimit:4;stroke-dasharray:none;stroke-opacity:1"
         id="path79" /><path
         d="M 910.586,636.094 C 927.227,636.094 940.703,640.004 940.703,644.723 C 940.703,649.492 927.227,653.336 910.586,653.336 C 893.953,653.336 880.469,649.492 880.469,644.723 C 880.469,640.004 893.953,636.094 910.586,636.094 z"
         style="fill:none;stroke:#231f20;stroke-width:2.55755997;stroke-linecap:butt;stroke-linejoin:miter;stroke-miterlimit:4;stroke-dasharray:none;stroke-opacity:1"
         id="path81" /><path
         d="M 910.012,638.176 C 920.371,638.176 933.613,640.227 933.613,643.184 C 933.613,646.168 920.371,648.953 910.012,648.953 C 899.629,648.953 886.816,646.168 886.816,643.184 C 886.816,640.227 899.629,638.176 910.012,638.176 z"
         style="fill:none;stroke:#231f20;stroke-width:2.55755997;stroke-linecap:butt;stroke-linejoin:miter;stroke-miterlimit:4;stroke-dasharray:none;stroke-opacity:1"
         id="path83" /><path
         d="M 910.984,655.938 C 913.23,655.938 915,657.27 915,658.91 C 915,660.531 913.23,661.852 910.984,661.852 C 908.75,661.852 906.953,660.531 906.953,658.91 C 906.953,657.27 908.75,655.938 910.984,655.938 z"
         style="fill:none;stroke:#231f20;stroke-width:1.20158994;stroke-linecap:butt;stroke-linejoin:miter;stroke-miterlimit:4;stroke-dasharray:none;stroke-opacity:1"
         id="path85" /><path
         d="M 926.172,654.516 C 928.145,654.516 929.695,655.715 929.695,657.156 C 929.695,658.676 928.145,659.875 926.172,659.875 C 924.238,659.875 922.656,658.676 922.656,657.156 C 922.656,655.715 924.238,654.516 926.172,654.516 z"
         style="fill:none;stroke:#231f20;stroke-width:1.20158994;stroke-linecap:butt;stroke-linejoin:miter;stroke-miterlimit:4;stroke-dasharray:none;stroke-opacity:1"
         id="path87" /><path
         d="M 937.812,650.438 C 939.023,650.438 939.934,651.742 939.934,653.375 C 939.934,655.051 939.023,656.348 937.812,656.348 C 936.582,656.348 935.625,655.051 935.625,653.375 C 935.625,651.742 936.582,650.438 937.812,650.438 z"
         style="fill:none;stroke:#231f20;stroke-width:1.20158994;stroke-linecap:butt;stroke-linejoin:miter;stroke-miterlimit:4;stroke-dasharray:none;stroke-opacity:1"
         id="path89" /><path
         d="M 895.879,654.867 C 893.953,654.867 892.402,656.098 892.402,657.535 C 892.402,659.07 893.953,660.258 895.879,660.258 C 897.82,660.258 899.402,659.07 899.402,657.535 C 899.402,656.098 897.82,654.867 895.879,654.867 z"
         style="fill:none;stroke:#231f20;stroke-width:1.20158994;stroke-linecap:butt;stroke-linejoin:miter;stroke-miterlimit:4;stroke-dasharray:none;stroke-opacity:1"
         id="path91" /><path
         d="M 884.258,650.785 C 883.086,650.785 882.129,652.133 882.129,653.762 C 882.129,655.398 883.086,656.703 884.258,656.703 C 885.469,656.703 886.426,655.398 886.426,653.762 C 886.426,652.133 885.469,650.785 884.258,650.785 z"
         style="fill:none;stroke:#231f20;stroke-width:1.20158994;stroke-linecap:butt;stroke-linejoin:miter;stroke-miterlimit:4;stroke-dasharray:none;stroke-opacity:1"
         id="path93" /><path
         d="M 766.738,750.957 L 865.098,751.156 C 865.098,751.156 869.25,751.555 869.844,752.73 C 870.43,753.922 872.617,757.281 872.617,757.281 C 872.617,757.281 873.867,760.969 875.598,754.711 L 876.77,749.594 C 876.77,749.594 877.742,744.426 879.141,753.125 C 880.508,761.832 881.301,765.395 881.301,765.395 C 881.301,765.395 884.258,771.324 884.453,764.785 L 884.453,736.531 C 884.453,736.531 884.648,729.23 886.008,729.23 C 887.422,729.23 889.395,727.848 889.395,733.559 L 889.395,779.805 C 889.395,779.805 888.625,784.973 892.402,785.344 C 892.402,785.344 894.746,785.344 894.746,780.812 C 894.746,776.254 894.746,725.648 894.746,725.648 C 894.746,725.648 894.324,722.719 898.301,722.719 C 898.301,722.719 899.668,722.305 900.105,726.449 L 899.863,787.34 C 899.863,787.34 901.465,794.836 905.84,788.312 L 905.84,721.902 C 905.84,721.902 905.43,716.547 909.004,716.547"
         style="fill:none;stroke:#231f20;stroke-width:3.16358995;stroke-linecap:butt;stroke-linejoin:miter;stroke-miterlimit:4;stroke-dasharray:none;stroke-opacity:1"
         id="path95" /><path
         d="M 1053.46,750.957 L 952.832,751.156 C 952.832,751.156 948.699,751.555 948.125,752.73 C 947.52,753.922 945.352,757.281 945.352,757.281 C 945.352,757.281 944.102,760.969 942.395,754.711 L 941.211,749.594 C 941.211,749.594 940.195,744.426 938.801,753.125 C 937.441,761.832 936.648,765.395 936.648,765.395 C 936.648,765.395 933.711,771.324 933.477,764.785 L 933.477,736.531 C 933.477,736.531 933.281,729.23 931.914,729.23 C 930.5,729.23 928.586,727.848 928.586,733.559 L 928.586,779.805 C 928.586,779.805 929.324,784.973 925.586,785.344 C 925.586,785.344 923.203,785.344 923.203,780.812 C 923.203,776.254 923.203,725.648 923.203,725.648 C 923.203,725.648 923.633,722.719 919.648,722.719 C 919.648,722.719 918.223,722.305 917.852,726.449 L 918.074,787.34 C 918.074,787.34 916.492,794.836 912.188,788.312 L 912.188,721.902 C 912.188,721.902 912.527,716.547 909.004,716.547"
         style="fill:none;stroke:#231f20;stroke-width:3.16358995;stroke-linecap:butt;stroke-linejoin:miter;stroke-miterlimit:4;stroke-dasharray:none;stroke-opacity:1"
         id="path97" /><path
         d="M 825.586,809.137 L 1004.12,808.805 C 1004.12,808.805 1035.79,812.688 1048.48,772.98 L 1048.91,771.215 L 1101.39,607.613 C 1101.39,607.613 1114.12,568.305 1088.31,549.883 L 1087.15,548.824 L 939.863,441.777 C 939.863,441.777 911.023,419.48 876.797,444.578 L 874.941,445.719 L 740.43,544.273 C 740.43,544.273 706.562,567.949 717.754,602.07 L 718.438,603.301 L 773.789,775.414 C 773.789,775.414 779.609,809.176 822.727,809.176 L 825.586,809.137 z"
         style="fill:none;stroke:#231f20;stroke-width:5.42860985;stroke-linecap:butt;stroke-linejoin:miter;stroke-miterlimit:4;stroke-dasharray:none;stroke-opacity:1"
         id="path99" /><path
         d="M 750.828,707.105 L 1068.94,707.105"
         style="fill:none;stroke:#231f20;stroke-width:3.61907005;stroke-linecap:butt;stroke-linejoin:miter;stroke-miterlimit:4;stroke-dasharray:none;stroke-opacity:1"
         id="path101" /><path
         d="M 783.652,713.77 L 789.805,719.355"
         style="fill:none;stroke:#231f20;stroke-width:0.91000998;stroke-linecap:butt;stroke-linejoin:miter;stroke-miterlimit:4;stroke-dasharray:none;stroke-opacity:1"
         id="path103" /><path
         d="M 844.562,719.355 L 850.723,713.77"
         style="fill:none;stroke:#231f20;stroke-width:0.91000998;stroke-linecap:butt;stroke-linejoin:miter;stroke-miterlimit:4;stroke-dasharray:none;stroke-opacity:1"
         id="path105" /><path
         d="M 789.719,777.148 C 789.719,777.148 787.527,774.434 784.98,773.594 L 783.652,773.336 L 783.652,713.77 L 814.465,723.828 C 814.465,723.828 816.418,720.32 820.52,723.516 L 820.879,723.52 L 850.723,713.77 L 850.723,773.336 L 850.176,773.438 C 847.141,774.41 844.562,777.781 844.562,777.781"
         style="fill:#ffffff;fill-opacity:1;fill-rule:nonzero;stroke:none"
         id="path107" /><path
         d="M 789.719,777.148 C 789.719,777.148 787.527,774.434 784.98,773.594 L 783.652,773.336 L 783.652,713.77 L 814.465,723.828 C 814.465,723.828 816.418,720.32 820.52,723.516 L 820.879,723.52 L 850.723,713.77 L 850.723,773.336 L 850.176,773.438 C 847.141,774.41 844.562,777.781 844.562,777.781"
         style="fill:none;stroke:#231f20;stroke-width:2.41367006;stroke-linecap:butt;stroke-linejoin:miter;stroke-miterlimit:4;stroke-dasharray:none;stroke-opacity:1"
         id="path109" /><path
         d="M 792.148,777.82 C 792.148,777.82 796.191,776.09 802.141,780.797 C 808.086,785.473 817.031,781.227 817.117,777.48 L 817.129,727.652 C 817.129,727.652 809.98,735.113 799.414,724.988 C 799.414,724.988 794.922,719.785 789.805,719.219 L 789.805,778.102 L 792.148,777.82"
         style="fill:#ffffff;fill-opacity:1;fill-rule:nonzero;stroke:none"
         id="path111" /><path
         d="M 792.148,777.82 C 792.148,777.82 796.191,776.09 802.141,780.797 C 808.086,785.473 817.031,781.227 817.117,777.48 L 817.129,727.652 C 817.129,727.652 809.98,735.113 799.414,724.988 C 799.414,724.988 794.922,719.785 789.805,719.219 L 789.805,778.102 L 792.148,777.82 z"
         style="fill:none;stroke:#231f20;stroke-width:1.82288003;stroke-linecap:butt;stroke-linejoin:miter;stroke-miterlimit:4;stroke-dasharray:none;stroke-opacity:1"
         id="path113" /><path
         d="M 842.227,777.82 C 842.227,777.82 838.164,776.09 832.195,780.797 C 826.211,785.473 817.285,781.227 817.227,777.48 L 817.227,727.652 C 817.227,727.652 824.375,735.113 834.941,724.988 C 834.941,724.988 839.453,719.785 844.562,719.355 L 844.562,778.238 L 842.227,777.82"
         style="fill:#ffffff;fill-opacity:1;fill-rule:nonzero;stroke:none"
         id="path115" /><path
         d="M 842.227,777.82 C 842.227,777.82 838.164,776.09 832.195,780.797 C 826.211,785.473 817.285,781.227 817.227,777.48 L 817.227,727.652 C 817.227,727.652 824.375,735.113 834.941,724.988 C 834.941,724.988 839.453,719.785 844.562,719.355 L 844.562,778.238 L 842.227,777.82 z"
         style="fill:none;stroke:#231f20;stroke-width:1.82288003;stroke-linecap:butt;stroke-linejoin:miter;stroke-miterlimit:4;stroke-dasharray:none;stroke-opacity:1"
         id="path117" /><path
         d="M 783.652,773.336 C 783.652,773.336 788.312,773.305 789.805,778.102 L 789.805,719.355 L 783.652,713.77 L 783.652,773.336"
         style="fill:#ed1248;fill-opacity:1;fill-rule:nonzero;stroke:none"
         id="path119" /><path
         d="M 783.652,773.336 C 783.652,773.336 788.312,773.305 789.805,778.102 L 789.805,719.355 L 783.652,713.77 L 783.652,773.336 z"
         style="fill:none;stroke:#231f20;stroke-width:1.20635998;stroke-linecap:butt;stroke-linejoin:miter;stroke-miterlimit:4;stroke-dasharray:none;stroke-opacity:1"
         id="path121" /><path
         d="M 850.723,773.484 C 850.723,773.484 846.035,773.441 844.562,778.238 L 844.562,719.508 L 850.723,713.895 L 850.723,773.484"
         style="fill:#ed1248;fill-opacity:1;fill-rule:nonzero;stroke:none"
         id="path123" /><path
         d="M 850.723,773.484 C 850.723,773.484 846.035,773.441 844.562,778.238 L 844.562,719.508 L 850.723,713.895 L 850.723,773.484 z"
         style="fill:none;stroke:#231f20;stroke-width:1.20635998;stroke-linecap:butt;stroke-linejoin:miter;stroke-miterlimit:4;stroke-dasharray:none;stroke-opacity:1"
         id="path125" /><path
         d="M 814.121,724.508 C 814.121,724.508 814.961,726.656 816.66,727.344"
         style="fill:#ffffff;fill-opacity:1;fill-rule:nonzero;stroke:none"
         id="path127" /><path
         d="M 814.121,724.508 C 814.121,724.508 814.961,726.656 816.66,727.344"
         style="fill:none;stroke:#231f20;stroke-width:0.91096002;stroke-linecap:butt;stroke-linejoin:miter;stroke-miterlimit:4;stroke-dasharray:none;stroke-opacity:1"
         id="path129" /><path
         d="M 820.664,724.066 C 820.664,724.066 819.648,726.559 817.793,727.305"
         style="fill:#ffffff;fill-opacity:1;fill-rule:nonzero;stroke:none"
         id="path131" /><path
         d="M 820.664,724.066 C 820.664,724.066 819.648,726.559 817.793,727.305"
         style="fill:none;stroke:#231f20;stroke-width:0.91096002;stroke-linecap:butt;stroke-linejoin:miter;stroke-miterlimit:4;stroke-dasharray:none;stroke-opacity:1"
         id="path133" /><path
         d="M 897.637,509.496 C 899.473,511.109 906.953,516.77 899.082,520.645 C 883.379,528.344 895.977,538.09 902.402,539.473 C 908.828,540.836 909.023,544.91 909.023,544.91 C 909.023,544.91 908.828,540.836 915.039,538.812 C 921.211,536.75 932.773,525.801 916.348,519.727 C 908.105,516.719 916.074,507.805 918.223,506.676 C 920.371,505.523 928.945,501.754 929.844,510.473 C 931.75,527.883 945.156,519.355 948.699,513.801 C 952.195,508.285 956.074,509.465 956.074,509.465 C 956.074,509.465 952.195,508.285 952.422,501.703 C 952.578,495.176 946.094,479.184 934.766,492.559 C 929.141,499.254 924.883,491.184 924.512,488.777 C 924.148,486.363 922.844,475.664 931.387,477.758 C 948.379,481.93 944.98,466.395 940.957,461.211 C 936.914,456.012 939.355,452.809 939.355,452.809 C 939.355,452.809 936.914,456.012 930.859,453.605 C 924.766,451.16 908.879,452.148 917.598,467.348 C 921.914,474.961 911.836,475.707 909.434,476.012 L 908.008,476.113 C 905.625,475.582 897.734,474.148 902.637,466.863 C 912.363,452.324 896.484,451.914 890.254,453.945 C 884.004,455.918 879.746,453.676 879.746,453.676 L 879.746,453.676 C 879.746,453.676 881.941,457.035 879.656,460.805 C 876.211,466.41 870.762,480.98 888.047,477.98 C 896.699,476.504 895.977,487.602 895.469,490.016 L 895.02,492.043 C 893.691,494.133 888.828,503.316 883.672,496.234 C 873.312,482.062 865.938,496.195 865.664,502.766 C 865.43,509.332 861.465,510.199 861.465,510.199 C 861.465,510.199 865.43,509.332 868.516,515.074 C 871.641,520.855 884.426,530.289 887.559,513.043 C 889.094,504.414 894.973,507.32 897.031,508.645 L 897.637,509.496"
         style="fill:#ffffff;fill-opacity:1;fill-rule:nonzero;stroke:none"
         id="path135" /><path
         d="M 897.637,509.496 C 899.473,511.109 906.953,516.77 899.082,520.645 C 883.379,528.344 895.977,538.09 902.402,539.473 C 908.828,540.836 909.023,544.91 909.023,544.91 C 909.023,544.91 908.828,540.836 915.039,538.812 C 921.211,536.75 932.773,525.801 916.348,519.727 C 908.105,516.719 916.074,507.805 918.223,506.676 C 920.371,505.523 928.945,501.754 929.844,510.473 C 931.75,527.883 945.156,519.355 948.699,513.801 C 952.195,508.285 956.074,509.465 956.074,509.465 C 956.074,509.465 952.195,508.285 952.422,501.703 C 952.578,495.176 946.094,479.184 934.766,492.559 C 929.141,499.254 924.883,491.184 924.512,488.777 C 924.148,486.363 922.844,475.664 931.387,477.758 C 948.379,481.93 944.98,466.395 940.957,461.211 C 936.914,456.012 939.355,452.809 939.355,452.809 C 939.355,452.809 936.914,456.012 930.859,453.605 C 924.766,451.16 908.879,452.148 917.598,467.348 C 921.914,474.961 911.836,475.707 909.434,476.012 L 908.008,476.113 C 905.625,475.582 897.734,474.148 902.637,466.863 C 912.363,452.324 896.484,451.914 890.254,453.945 C 884.004,455.918 879.746,453.676 879.746,453.676 L 879.746,453.676 C 879.746,453.676 881.941,457.035 879.656,460.805 C 876.211,466.41 870.762,480.98 888.047,477.98 C 896.699,476.504 895.977,487.602 895.469,490.016 L 895.02,492.043 C 893.691,494.133 888.828,503.316 883.672,496.234 C 873.312,482.062 865.938,496.195 865.664,502.766 C 865.43,509.332 861.465,510.199 861.465,510.199 C 861.465,510.199 865.43,509.332 868.516,515.074 C 871.641,520.855 884.426,530.289 887.559,513.043 C 889.094,504.414 894.973,507.32 897.031,508.645 L 897.637,509.496 z"
         style="fill:none;stroke:#231f20;stroke-width:2.44605994;stroke-linecap:butt;stroke-linejoin:miter;stroke-miterlimit:4;stroke-dasharray:none;stroke-opacity:1"
         id="path137" /><path
         d="M 909.91,485.77 C 914.434,485.504 918.281,489.324 918.535,494.281 C 918.828,499.211 915.371,503.383 910.879,503.629 C 906.406,503.844 902.539,500.051 902.285,495.137 C 902.02,490.191 905.449,486.02 909.91,485.77"
         style="fill:#ffffff;fill-opacity:1;fill-rule:nonzero;stroke:none"
         id="path139" /><path
         d="M 909.91,485.77 C 914.434,485.504 918.281,489.324 918.535,494.281 C 918.828,499.211 915.371,503.383 910.879,503.629 C 906.406,503.844 902.539,500.051 902.285,495.137 C 902.02,490.191 905.449,486.02 909.91,485.77 z"
         style="fill:none;stroke:#231f20;stroke-width:2.44511008;stroke-linecap:butt;stroke-linejoin:miter;stroke-miterlimit:4;stroke-dasharray:none;stroke-opacity:1"
         id="path141" /><path
         d="M 908.379,524.59 C 911.426,524.438 914.004,526.758 914.16,529.785 C 914.297,532.809 911.973,535.41 908.977,535.547 C 905.918,535.719 903.359,533.391 903.184,530.371 C 903.027,527.328 905.371,524.75 908.379,524.59"
         style="fill:#ffffff;fill-opacity:1;fill-rule:nonzero;stroke:none"
         id="path143" /><path
         d="M 908.379,524.59 C 911.426,524.438 914.004,526.758 914.16,529.785 C 914.297,532.809 911.973,535.41 908.977,535.547 C 905.918,535.719 903.359,533.391 903.184,530.371 C 903.027,527.328 905.371,524.75 908.379,524.59 z"
         style="fill:none;stroke:#231f20;stroke-width:2.44511008;stroke-linecap:butt;stroke-linejoin:miter;stroke-miterlimit:4;stroke-dasharray:none;stroke-opacity:1"
         id="path145" /><path
         d="M 876.531,499.762 C 879.531,499.59 882.18,501.938 882.324,504.945 C 882.48,507.992 880.156,510.543 877.109,510.707 C 874.082,510.863 871.492,508.559 871.355,505.523 C 871.172,502.516 873.508,499.918 876.531,499.762"
         style="fill:#ffffff;fill-opacity:1;fill-rule:nonzero;stroke:none"
         id="path147" /><path
         d="M 876.531,499.762 C 879.531,499.59 882.18,501.938 882.324,504.945 C 882.48,507.992 880.156,510.543 877.109,510.707 C 874.082,510.863 871.492,508.559 871.355,505.523 C 871.172,502.516 873.508,499.918 876.531,499.762 z"
         style="fill:none;stroke:#231f20;stroke-width:2.44511008;stroke-linecap:butt;stroke-linejoin:miter;stroke-miterlimit:4;stroke-dasharray:none;stroke-opacity:1"
         id="path149" /><path
         d="M 942.156,498.062 C 945.156,497.891 947.766,500.23 947.91,503.246 C 948.066,506.293 945.742,508.824 942.715,509.016 C 939.668,509.195 937.09,506.863 936.914,503.809 C 936.758,500.785 939.102,498.219 942.156,498.062"
         style="fill:#ffffff;fill-opacity:1;fill-rule:nonzero;stroke:none"
         id="path151" /><path
         d="M 942.156,498.062 C 945.156,497.891 947.766,500.23 947.91,503.246 C 948.066,506.293 945.742,508.824 942.715,509.016 C 939.668,509.195 937.09,506.863 936.914,503.809 C 936.758,500.785 939.102,498.219 942.156,498.062 z"
         style="fill:none;stroke:#231f20;stroke-width:2.44511008;stroke-linecap:butt;stroke-linejoin:miter;stroke-miterlimit:4;stroke-dasharray:none;stroke-opacity:1"
         id="path153" /><path
         d="M 929.082,458.398 C 932.129,458.23 934.727,460.57 934.902,463.605 C 935.059,466.605 932.695,469.195 929.695,469.371 C 926.66,469.531 924.062,467.195 923.906,464.141 C 923.73,461.137 926.062,458.551 929.082,458.398"
         style="fill:#ffffff;fill-opacity:1;fill-rule:nonzero;stroke:none"
         id="path155" /><path
         d="M 929.082,458.398 C 932.129,458.23 934.727,460.57 934.902,463.605 C 935.059,466.605 932.695,469.195 929.695,469.371 C 926.66,469.531 924.062,467.195 923.906,464.141 C 923.73,461.137 926.062,458.551 929.082,458.398 z"
         style="fill:none;stroke:#231f20;stroke-width:2.44511008;stroke-linecap:butt;stroke-linejoin:miter;stroke-miterlimit:4;stroke-dasharray:none;stroke-opacity:1"
         id="path157" /><path
         d="M 889.141,460.504 C 892.227,460.359 894.797,462.668 894.973,465.707 C 895.117,468.727 892.793,471.301 889.785,471.469 C 886.738,471.633 884.141,469.262 883.984,466.266 C 883.816,463.23 886.152,460.684 889.141,460.504"
         style="fill:#ffffff;fill-opacity:1;fill-rule:nonzero;stroke:none"
         id="path159" /><path
         d="M 889.141,460.504 C 892.227,460.359 894.797,462.668 894.973,465.707 C 895.117,468.727 892.793,471.301 889.785,471.469 C 886.738,471.633 884.141,469.262 883.984,466.266 C 883.816,463.23 886.152,460.684 889.141,460.504 z"
         style="fill:none;stroke:#231f20;stroke-width:2.44511008;stroke-linecap:butt;stroke-linejoin:miter;stroke-miterlimit:4;stroke-dasharray:none;stroke-opacity:1"
         id="path161" /><path
         d="M 876.582,503.324 C 879.316,503.188 881.641,505.281 881.77,507.992 C 881.941,510.707 879.824,513.062 877.102,513.188 C 874.387,513.34 872.051,511.273 871.914,508.523 C 871.777,505.812 873.848,503.469 876.582,503.324"
         style="fill:#ffffff;fill-opacity:1;fill-rule:nonzero;stroke:none"
         id="path163" /><path
         d="M 942.188,501.621 C 944.902,501.504 947.227,503.57 947.383,506.312 C 947.5,509.016 945.391,511.367 942.688,511.492 C 939.98,511.648 937.637,509.551 937.52,506.824 C 937.363,504.086 939.453,501.773 942.188,501.621"
         style="fill:#ffffff;fill-opacity:1;fill-rule:nonzero;stroke:none"
         id="path165" /><path
         d="M 928.992,461.387 C 931.711,461.254 934.004,463.355 934.18,466.078 C 934.324,468.773 932.246,471.117 929.492,471.285 C 926.777,471.395 924.426,469.348 924.316,466.582 C 924.148,463.84 926.23,461.543 928.992,461.387"
         style="fill:#ffffff;fill-opacity:1;fill-rule:nonzero;stroke:none"
         id="path167" /><path
         d="M 889.23,463.23 C 891.934,463.059 894.277,465.168 894.414,467.91 C 894.551,470.625 892.461,472.965 889.727,473.105 C 887.012,473.262 884.688,471.117 884.562,468.438 C 884.414,465.707 886.477,463.367 889.23,463.23"
         style="fill:#ffffff;fill-opacity:1;fill-rule:nonzero;stroke:none"
         id="path169" /><path
         d="M 910.156,489.629 C 914.453,489.352 918.184,492.672 918.398,497.008 C 918.613,501.332 915.281,505.004 910.984,505.234 C 906.68,505.449 902.988,502.164 902.754,497.809 C 902.539,493.512 905.852,489.82 910.156,489.629"
         style="fill:#ffffff;fill-opacity:1;fill-rule:nonzero;stroke:none"
         id="path171" /><path
         d="M 1035.14,610.812 C 1036.99,612.465 1044.51,618.109 1036.64,621.977 C 1020.91,629.691 1033.5,639.414 1039.91,640.816 C 1046.33,642.227 1046.52,646.234 1046.52,646.234 C 1046.52,646.234 1046.33,642.227 1052.55,640.141 C 1058.79,638.105 1070.31,627.129 1053.87,621.07 C 1045.66,618.031 1053.62,609.145 1055.74,608.023 C 1057.92,606.859 1066.45,603.086 1067.39,611.793 C 1069.27,629.25 1082.7,620.699 1086.23,615.16 C 1089.71,609.602 1093.57,610.801 1093.57,610.801 C 1093.57,610.801 1089.71,609.602 1089.89,603.031 C 1090.1,596.48 1083.64,580.492 1072.34,593.93 C 1066.65,600.602 1062.4,592.539 1062.02,590.09 C 1061.71,587.695 1060.41,576.98 1068.89,579.07 C 1085.93,583.23 1082.5,567.73 1078.47,562.562 C 1074.49,557.359 1076.88,554.137 1076.88,554.137 C 1076.88,554.137 1074.49,557.359 1068.37,554.922 C 1062.26,552.484 1046.39,553.492 1055.1,568.691 C 1059.47,576.316 1049.39,577.035 1046.93,577.34 L 1045.55,577.449 C 1043.12,576.938 1035.27,575.48 1040.16,568.207 C 1049.89,553.648 1033.98,553.258 1027.79,555.254 C 1021.5,557.25 1017.3,555.004 1017.3,555.004 L 1017.3,555.004 C 1017.3,555.004 1019.46,558.336 1017.15,562.145 C 1013.77,567.75 1008.28,582.309 1025.57,579.32 C 1034.2,577.832 1033.52,588.945 1033.03,591.312 L 1032.53,593.379 C 1031.27,595.461 1026.33,604.629 1021.18,597.559 C 1010.84,583.422 1003.45,597.512 1003.21,604.086 C 1002.97,610.637 999.016,611.543 999.016,611.543 C 999.016,611.543 1002.97,610.637 1006.06,616.402 C 1009.18,622.188 1021.97,631.645 1025.1,614.395 C 1026.64,605.758 1032.52,608.691 1034.55,609.973 L 1035.14,610.812"
         style="fill:#ffffff;fill-opacity:1;fill-rule:nonzero;stroke:none"
         id="path173" /><path
         d="M 1035.14,610.812 C 1036.99,612.465 1044.51,618.109 1036.64,621.977 C 1020.91,629.691 1033.5,639.414 1039.91,640.816 C 1046.33,642.227 1046.52,646.234 1046.52,646.234 C 1046.52,646.234 1046.33,642.227 1052.55,640.141 C 1058.79,638.105 1070.31,627.129 1053.87,621.07 C 1045.66,618.031 1053.62,609.145 1055.74,608.023 C 1057.92,606.859 1066.45,603.086 1067.39,611.793 C 1069.27,629.25 1082.7,620.699 1086.23,615.16 C 1089.71,609.602 1093.57,610.801 1093.57,610.801 C 1093.57,610.801 1089.71,609.602 1089.89,603.031 C 1090.1,596.48 1083.64,580.492 1072.34,593.93 C 1066.65,600.602 1062.4,592.539 1062.02,590.09 C 1061.71,587.695 1060.41,576.98 1068.89,579.07 C 1085.93,583.23 1082.5,567.73 1078.47,562.562 C 1074.49,557.359 1076.88,554.137 1076.88,554.137 C 1076.88,554.137 1074.49,557.359 1068.37,554.922 C 1062.26,552.484 1046.39,553.492 1055.1,568.691 C 1059.47,576.316 1049.39,577.035 1046.93,577.34 L 1045.55,577.449 C 1043.12,576.938 1035.27,575.48 1040.16,568.207 C 1049.89,553.648 1033.98,553.258 1027.79,555.254 C 1021.5,557.25 1017.3,555.004 1017.3,555.004 L 1017.3,555.004 C 1017.3,555.004 1019.46,558.336 1017.15,562.145 C 1013.77,567.75 1008.28,582.309 1025.57,579.32 C 1034.2,577.832 1033.52,588.945 1033.03,591.312 L 1032.53,593.379 C 1031.27,595.461 1026.33,604.629 1021.18,597.559 C 1010.84,583.422 1003.45,597.512 1003.21,604.086 C 1002.97,610.637 999.016,611.543 999.016,611.543 C 999.016,611.543 1002.97,610.637 1006.06,616.402 C 1009.18,622.188 1021.97,631.645 1025.1,614.395 C 1026.64,605.758 1032.52,608.691 1034.55,609.973 L 1035.14,610.812 z"
         style="fill:none;stroke:#231f20;stroke-width:2.44605994;stroke-linecap:butt;stroke-linejoin:miter;stroke-miterlimit:4;stroke-dasharray:none;stroke-opacity:1"
         id="path175" /><path
         d="M 1047.48,587.09 C 1051.94,586.855 1055.82,590.691 1056.07,595.605 C 1056.33,600.566 1052.89,604.742 1048.42,604.977 C 1043.92,605.219 1040.1,601.406 1039.81,596.449 C 1039.59,591.508 1042.98,587.336 1047.48,587.09"
         style="fill:#ffffff;fill-opacity:1;fill-rule:nonzero;stroke:none"
         id="path177" /><path
         d="M 1047.48,587.09 C 1051.94,586.855 1055.82,590.691 1056.07,595.605 C 1056.33,600.566 1052.89,604.742 1048.42,604.977 C 1043.92,605.219 1040.1,601.406 1039.81,596.449 C 1039.59,591.508 1042.98,587.336 1047.48,587.09 z"
         style="fill:none;stroke:#231f20;stroke-width:2.44511008;stroke-linecap:butt;stroke-linejoin:miter;stroke-miterlimit:4;stroke-dasharray:none;stroke-opacity:1"
         id="path179" /><path
         d="M 1045.93,625.918 C 1048.95,625.781 1051.48,628.105 1051.68,631.125 C 1051.85,634.18 1049.51,636.75 1046.46,636.902 C 1043.45,637.055 1040.9,634.73 1040.72,631.715 C 1040.55,628.711 1042.85,626.086 1045.93,625.918"
         style="fill:#ffffff;fill-opacity:1;fill-rule:nonzero;stroke:none"
         id="path181" /><path
         d="M 1045.93,625.918 C 1048.95,625.781 1051.48,628.105 1051.68,631.125 C 1051.85,634.18 1049.51,636.75 1046.46,636.902 C 1043.45,637.055 1040.9,634.73 1040.72,631.715 C 1040.55,628.711 1042.85,626.086 1045.93,625.918 z"
         style="fill:none;stroke:#231f20;stroke-width:2.44511008;stroke-linecap:butt;stroke-linejoin:miter;stroke-miterlimit:4;stroke-dasharray:none;stroke-opacity:1"
         id="path183" /><path
         d="M 1014.06,601.105 C 1017.11,600.953 1019.69,603.266 1019.84,606.285 C 1019.98,609.312 1017.66,611.918 1014.65,612.035 C 1011.64,612.23 1009.04,609.883 1008.87,606.859 C 1008.71,603.852 1011.04,601.25 1014.06,601.105"
         style="fill:#ffffff;fill-opacity:1;fill-rule:nonzero;stroke:none"
         id="path185" /><path
         d="M 1014.06,601.105 C 1017.11,600.953 1019.69,603.266 1019.84,606.285 C 1019.98,609.312 1017.66,611.918 1014.65,612.035 C 1011.64,612.23 1009.04,609.883 1008.87,606.859 C 1008.71,603.852 1011.04,601.25 1014.06,601.105 z"
         style="fill:none;stroke:#231f20;stroke-width:2.44511008;stroke-linecap:butt;stroke-linejoin:miter;stroke-miterlimit:4;stroke-dasharray:none;stroke-opacity:1"
         id="path187" /><path
         d="M 1079.67,599.371 C 1082.7,599.238 1085.25,601.547 1085.45,604.59 C 1085.6,607.613 1083.27,610.191 1080.23,610.355 C 1077.2,610.508 1074.63,608.184 1074.49,605.168 C 1074.32,602.125 1076.62,599.543 1079.67,599.371"
         style="fill:#ffffff;fill-opacity:1;fill-rule:nonzero;stroke:none"
         id="path189" /><path
         d="M 1079.67,599.371 C 1082.7,599.238 1085.25,601.547 1085.45,604.59 C 1085.6,607.613 1083.27,610.191 1080.23,610.355 C 1077.2,610.508 1074.63,608.184 1074.49,605.168 C 1074.32,602.125 1076.62,599.543 1079.67,599.371 z"
         style="fill:none;stroke:#231f20;stroke-width:2.44511008;stroke-linecap:butt;stroke-linejoin:miter;stroke-miterlimit:4;stroke-dasharray:none;stroke-opacity:1"
         id="path191" /><path
         d="M 1066.64,559.727 C 1069.68,559.562 1072.27,561.902 1072.43,564.945 C 1072.58,567.988 1070.25,570.535 1067.22,570.719 C 1064.18,570.84 1061.62,568.547 1061.48,565.512 C 1061.29,562.477 1063.61,559.906 1066.64,559.727"
         style="fill:#ffffff;fill-opacity:1;fill-rule:nonzero;stroke:none"
         id="path193" /><path
         d="M 1066.64,559.727 C 1069.68,559.562 1072.27,561.902 1072.43,564.945 C 1072.58,567.988 1070.25,570.535 1067.22,570.719 C 1064.18,570.84 1061.62,568.547 1061.48,565.512 C 1061.29,562.477 1063.61,559.906 1066.64,559.727 z"
         style="fill:none;stroke:#231f20;stroke-width:2.44511008;stroke-linecap:butt;stroke-linejoin:miter;stroke-miterlimit:4;stroke-dasharray:none;stroke-opacity:1"
         id="path195" /><path
         d="M 1026.74,561.84 C 1029.71,561.676 1032.34,564.008 1032.46,567.043 C 1032.63,570.066 1030.33,572.633 1027.27,572.793 C 1024.23,572.969 1021.68,570.66 1021.5,567.59 C 1021.33,564.562 1023.7,561.996 1026.74,561.84"
         style="fill:#ffffff;fill-opacity:1;fill-rule:nonzero;stroke:none"
         id="path197" /><path
         d="M 1026.74,561.84 C 1029.71,561.676 1032.34,564.008 1032.46,567.043 C 1032.63,570.066 1030.33,572.633 1027.27,572.793 C 1024.23,572.969 1021.68,570.66 1021.5,567.59 C 1021.33,564.562 1023.7,561.996 1026.74,561.84 z"
         style="fill:none;stroke:#231f20;stroke-width:2.44511008;stroke-linecap:butt;stroke-linejoin:miter;stroke-miterlimit:4;stroke-dasharray:none;stroke-opacity:1"
         id="path199" /><path
         d="M 1014.13,604.672 C 1016.82,604.52 1019.16,606.625 1019.32,609.352 C 1019.46,612.07 1017.36,614.395 1014.61,614.555 C 1011.9,614.695 1009.56,612.602 1009.43,609.883 C 1009.32,607.129 1011.41,604.801 1014.13,604.672"
         style="fill:#ffffff;fill-opacity:1;fill-rule:nonzero;stroke:none"
         id="path201" /><path
         d="M 1079.69,602.961 C 1082.44,602.816 1084.77,604.906 1084.89,607.613 C 1085.04,610.355 1082.94,612.676 1080.23,612.852 C 1077.48,612.973 1075.2,610.867 1075.02,608.152 C 1074.91,605.434 1076.97,603.086 1079.69,602.961"
         style="fill:#ffffff;fill-opacity:1;fill-rule:nonzero;stroke:none"
         id="path203" /><path
         d="M 1066.54,562.742 C 1069.22,562.566 1071.58,564.684 1071.74,567.383 C 1071.86,570.121 1069.75,572.449 1067.02,572.602 C 1064.3,572.727 1061.97,570.66 1061.86,567.922 C 1061.71,565.18 1063.77,562.852 1066.54,562.742"
         style="fill:#ffffff;fill-opacity:1;fill-rule:nonzero;stroke:none"
         id="path205" /><path
         d="M 1026.76,564.562 C 1029.47,564.395 1031.8,566.492 1031.95,569.25 C 1032.11,571.969 1030.01,574.281 1027.25,574.434 C 1024.55,574.586 1022.22,572.465 1022.07,569.766 C 1021.93,567.043 1024.02,564.711 1026.76,564.562"
         style="fill:#ffffff;fill-opacity:1;fill-rule:nonzero;stroke:none"
         id="path207" /><path
         d="M 1047.7,590.922 C 1052.04,590.723 1055.68,594.047 1055.91,598.379 C 1056.14,602.691 1052.83,606.324 1048.54,606.57 C 1044.2,606.82 1040.49,603.5 1040.28,599.156 C 1040.08,594.867 1043.38,591.16 1047.7,590.922"
         style="fill:#ffffff;fill-opacity:1;fill-rule:nonzero;stroke:none"
         id="path209" /><path
         d="M 908.418,526.969 C 911.125,526.816 913.457,528.906 913.613,531.664 C 913.73,534.332 911.633,536.688 908.906,536.82 C 906.191,536.969 903.84,534.875 903.711,532.133 C 903.605,529.398 905.664,527.113 908.418,526.969"
         style="fill:#ffffff;fill-opacity:1;fill-rule:nonzero;stroke:none"
         id="path211" /><path
         d="M 1045.93,628.012 C 1048.67,627.859 1050.98,629.949 1051.11,632.652 C 1051.27,635.422 1049.18,637.73 1046.45,637.844 C 1043.71,638.008 1041.41,635.93 1041.21,633.191 C 1041.11,630.465 1043.18,628.105 1045.93,628.012"
         style="fill:#ffffff;fill-opacity:1;fill-rule:nonzero;stroke:none"
         id="path213" /><path
         d="M 775.645,629.512 C 778.418,629.359 780.703,631.477 780.852,634.195 C 780.996,636.965 778.926,639.258 776.191,639.391 C 773.477,639.535 771.145,637.441 770.977,634.73 C 770.84,632.004 772.922,629.664 775.645,629.512"
         style="fill:#ffffff;fill-opacity:1;fill-rule:nonzero;stroke:none"
         id="path215" /><path
         d="M 967.031,714.973 L 973.164,720.562"
         style="fill:none;stroke:#231f20;stroke-width:0.91000998;stroke-linecap:butt;stroke-linejoin:miter;stroke-miterlimit:4;stroke-dasharray:none;stroke-opacity:1"
         id="path217" /><path
         d="M 1027.9,720.562 L 1034.08,714.973"
         style="fill:none;stroke:#231f20;stroke-width:0.91000998;stroke-linecap:butt;stroke-linejoin:miter;stroke-miterlimit:4;stroke-dasharray:none;stroke-opacity:1"
         id="path219" /><path
         d="M 973.066,778.344 C 973.066,778.344 970.859,775.648 968.32,774.809 L 967.031,774.547 L 967.031,714.973 L 997.812,725.039 C 997.812,725.039 999.758,721.492 1003.89,724.688 L 1004.28,724.742 L 1034.08,714.973 L 1034.08,774.547 L 1033.57,774.656 C 1030.51,775.621 1027.9,779.008 1027.9,779.008"
         style="fill:#ffffff;fill-opacity:1;fill-rule:nonzero;stroke:none"
         id="path221" /><path
         d="M 973.066,778.344 C 973.066,778.344 970.859,775.648 968.32,774.809 L 967.031,774.547 L 967.031,714.973 L 997.812,725.039 C 997.812,725.039 999.758,721.492 1003.89,724.688 L 1004.28,724.742 L 1034.08,714.973 L 1034.08,774.547 L 1033.57,774.656 C 1030.51,775.621 1027.9,779.008 1027.9,779.008"
         style="fill:none;stroke:#231f20;stroke-width:2.41367006;stroke-linecap:butt;stroke-linejoin:miter;stroke-miterlimit:4;stroke-dasharray:none;stroke-opacity:1"
         id="path223" /><path
         d="M 975.5,779.047 C 975.5,779.047 979.602,777.328 985.508,781.996 C 991.484,786.688 1000.43,782.438 1000.47,778.684 L 1000.49,728.816 C 1000.49,728.816 993.367,736.328 982.773,726.195 C 982.773,726.195 978.254,720.996 973.164,720.406 L 973.164,779.312 L 975.5,779.047"
         style="fill:#ffffff;fill-opacity:1;fill-rule:nonzero;stroke:none"
         id="path225" /><path
         d="M 975.5,779.047 C 975.5,779.047 979.602,777.328 985.508,781.996 C 991.484,786.688 1000.43,782.438 1000.47,778.684 L 1000.49,728.816 C 1000.49,728.816 993.367,736.328 982.773,726.195 C 982.773,726.195 978.254,720.996 973.164,720.406 L 973.164,779.312 L 975.5,779.047 z"
         style="fill:none;stroke:#231f20;stroke-width:1.82288003;stroke-linecap:butt;stroke-linejoin:miter;stroke-miterlimit:4;stroke-dasharray:none;stroke-opacity:1"
         id="path227" /><path
         d="M 1025.57,779.047 C 1025.57,779.047 1021.56,777.328 1015.59,781.996 C 1009.63,786.688 1000.68,782.438 1000.64,778.684 L 1000.64,728.816 C 1000.64,728.816 1007.73,736.328 1018.29,726.195 C 1018.29,726.195 1022.85,720.996 1027.9,720.562 L 1027.9,779.449 L 1025.57,779.047"
         style="fill:#ffffff;fill-opacity:1;fill-rule:nonzero;stroke:none"
         id="path229" /><path
         d="M 1025.57,779.047 C 1025.57,779.047 1021.56,777.328 1015.59,781.996 C 1009.63,786.688 1000.68,782.438 1000.64,778.684 L 1000.64,728.816 C 1000.64,728.816 1007.73,736.328 1018.29,726.195 C 1018.29,726.195 1022.85,720.996 1027.9,720.562 L 1027.9,779.449 L 1025.57,779.047 z"
         style="fill:none;stroke:#231f20;stroke-width:1.82288003;stroke-linecap:butt;stroke-linejoin:miter;stroke-miterlimit:4;stroke-dasharray:none;stroke-opacity:1"
         id="path231" /><path
         d="M 967.031,774.547 C 967.031,774.547 971.68,774.508 973.164,779.312 L 973.164,720.562 L 967.031,714.973 L 967.031,774.547"
         style="fill:#ed1248;fill-opacity:1;fill-rule:nonzero;stroke:none"
         id="path233" /><path
         d="M 967.031,774.547 C 967.031,774.547 971.68,774.508 973.164,779.312 L 973.164,720.562 L 967.031,714.973 L 967.031,774.547 z"
         style="fill:none;stroke:#231f20;stroke-width:1.20635998;stroke-linecap:butt;stroke-linejoin:miter;stroke-miterlimit:4;stroke-dasharray:none;stroke-opacity:1"
         id="path235" /><path
         d="M 1034.07,774.734 C 1034.07,774.734 1029.39,774.656 1027.9,779.465 L 1027.9,720.691 L 1034.07,715.102 L 1034.07,774.734"
         style="fill:#ed1248;fill-opacity:1;fill-rule:nonzero;stroke:none"
         id="path237" /><path
         d="M 1034.07,774.734 C 1034.07,774.734 1029.39,774.656 1027.9,779.465 L 1027.9,720.691 L 1034.07,715.102 L 1034.07,774.734 z"
         style="fill:none;stroke:#231f20;stroke-width:1.20635998;stroke-linecap:butt;stroke-linejoin:miter;stroke-miterlimit:4;stroke-dasharray:none;stroke-opacity:1"
         id="path239" /><path
         d="M 997.441,725.715 C 997.441,725.715 998.32,727.852 1000.06,728.555"
         style="fill:#ffffff;fill-opacity:1;fill-rule:nonzero;stroke:none"
         id="path241" /><path
         d="M 997.441,725.715 C 997.441,725.715 998.32,727.852 1000.06,728.555"
         style="fill:none;stroke:#231f20;stroke-width:0.91096002;stroke-linecap:butt;stroke-linejoin:miter;stroke-miterlimit:4;stroke-dasharray:none;stroke-opacity:1"
         id="path243" /><path
         d="M 1004.05,725.266 C 1004.05,725.266 1003.04,727.777 1001.19,728.555"
         style="fill:#ffffff;fill-opacity:1;fill-rule:nonzero;stroke:none"
         id="path245" /><path
         d="M 1004.05,725.266 C 1004.05,725.266 1003.04,727.777 1001.19,728.555"
         style="fill:none;stroke:#231f20;stroke-width:0.91096002;stroke-linecap:butt;stroke-linejoin:miter;stroke-miterlimit:4;stroke-dasharray:none;stroke-opacity:1"
         id="path247" /><path
         d="M 36.7773,515.02 L 36.7773,458.754 C 36.7773,453.469 37.2734,450.387 38.2578,448.531 C 40.2422,444.727 44.2812,442.637 49.9375,442.637 C 57.4805,442.637 62.2969,446.309 63.0195,452.594 C 63.2656,454.441 63.2656,455.668 63.2656,460.23 L 63.2656,515.02 L 80.7227,515.02 L 80.7227,457.395 C 80.7227,449.262 80.6289,447.672 79.3906,443.992 C 77.1719,437.207 68.8125,427.844 50.3281,427.844 C 37.2734,427.844 27.6719,431.797 22.8711,439.285 C 20.043,443.754 19.1797,447.164 19.1797,455.414 L 19.1797,515.02 L 36.7773,515.02"
         style="fill:#231f20;fill-opacity:1;fill-rule:nonzero;stroke:none"
         id="path249" /><path
         d="M 108.062,494.098 C 109.566,491.504 110.426,488.793 110.426,486.195 C 112.891,487.934 114.973,489.414 117.676,490.895 C 120.992,492.613 125.305,493.594 129.02,493.594 C 136.02,493.594 142.191,489.898 144.145,484.477 C 144.996,482.172 145.367,479.438 145.367,475.508 L 145.367,429.449 L 129.117,429.449 L 129.117,470.461 C 129.117,477.578 127.898,479.695 123.594,479.695 C 120.27,479.695 115.945,477.465 112.148,474.004 L 112.148,429.449 L 95.6289,429.449 L 95.6289,475.129 C 95.6289,480.551 94.8789,485.727 93.4297,489.898 L 108.062,494.098"
         style="fill:#231f20;fill-opacity:1;fill-rule:nonzero;stroke:none"
         id="path251" /><path
         d="M 179.617,509.855 C 179.617,504.18 175.059,499.641 169.387,499.641 C 163.84,499.641 159.293,504.18 159.293,509.855 C 159.293,515.527 163.961,520.062 169.633,520.062 C 175.188,520.062 179.617,515.527 179.617,509.855 z M 177.621,493.984 L 177.621,429.449 L 161.152,429.449 L 161.152,491.379 L 177.621,493.984"
         style="fill:#231f20;fill-opacity:1;fill-rule:nonzero;stroke:none"
         id="path253" /><path
         d="M 200.414,493.594 L 209.531,465.172 C 210.859,460.957 212.719,454.086 213.609,450.023 C 214.102,453.699 215.438,459.73 217.422,466.012 L 225.918,492.477 L 243.129,492.477 L 220.113,429.449 L 206.441,429.449 L 183.539,491.504 L 200.414,493.594"
         style="fill:#231f20;fill-opacity:1;fill-rule:nonzero;stroke:none"
         id="path255" /><path
         d="M 297.676,436.465 C 290.414,430.57 282.781,427.711 273.926,427.711 C 255.828,427.711 244.141,440.535 244.141,460.352 C 244.141,471.656 246.484,479.188 252.031,485.348 C 257.172,491.133 263.445,493.852 271.832,493.852 C 279.117,493.852 286.008,491.379 290.066,487.211 C 295.855,481.285 298.43,472.773 298.43,459.629 C 298.43,458.246 298.43,456.895 298.43,455.812 L 261.973,455.812 L 261.973,455.32 C 261.973,445.586 266.773,440.027 275.273,440.027 C 280.953,440.027 286.238,442.145 291.289,446.309 L 297.676,436.465 z M 281.305,467.887 L 281.305,468.629 C 281.305,473.266 280.816,475.73 279.363,478.062 C 277.727,480.551 275.398,481.777 272.078,481.777 C 265.801,481.777 262.223,476.836 262.223,468.121 L 262.223,467.887 L 281.305,467.887"
         style="fill:#231f20;fill-opacity:1;fill-rule:nonzero;stroke:none"
         id="path257" /><path
         d="M 322.324,493.984 C 323.789,491.379 324.652,488.555 324.898,484.984 C 327.242,488.18 331.188,491.648 334.262,492.988 C 335.637,493.594 337.836,493.984 339.684,493.984 C 342.152,493.984 343.262,493.73 345.812,492.613 L 341.277,478.062 C 339.684,478.941 338.312,479.312 336.465,479.312 C 332.766,479.312 329.438,477.578 326.387,474.004 L 326.387,429.449 L 309.883,429.449 L 309.883,471.555 C 309.883,480.043 308.91,486.461 307.535,490.023 L 322.324,493.984"
         style="fill:#231f20;fill-opacity:1;fill-rule:nonzero;stroke:none"
         id="path259" /><path
         d="M 392.145,477.234 C 385.844,480.445 381.301,481.777 376.625,481.777 C 371.797,481.777 368.621,479.312 368.621,475.613 C 368.621,472.418 370.703,470.691 376.477,469.234 L 384.105,467.246 C 391.875,465.281 394.48,462.938 396.676,460.098 C 399.047,457.156 400.129,453.594 400.129,449.363 C 400.129,436.34 389.285,427.473 373.152,427.473 C 365.414,427.473 356.918,429.949 347.695,434.742 L 353.559,446.801 C 358.633,443.754 367.387,439.672 374.504,439.672 C 379.215,439.672 382.891,442.75 382.891,446.801 C 382.891,451.129 379.824,453.336 373.152,454.57 L 365.797,455.914 C 361.602,456.676 356.418,459.629 354.215,462.32 C 351.996,465.039 350.621,469.605 350.621,473.645 C 350.621,485.957 360.355,494.223 375.016,494.223 C 385.105,494.223 391.762,491.133 397.535,488.305 L 392.145,477.234"
         style="fill:#231f20;fill-opacity:1;fill-rule:nonzero;stroke:none"
         id="path261" /><path
         d="M 429.91,509.855 C 429.91,504.18 425.375,499.641 419.711,499.641 C 414.176,499.641 409.609,504.18 409.609,509.855 C 409.609,515.527 414.281,520.062 419.973,520.062 C 425.488,520.062 429.91,515.527 429.91,509.855 z M 427.945,493.984 L 427.945,429.449 L 411.469,429.449 L 411.469,491.379 L 427.945,493.984"
         style="fill:#231f20;fill-opacity:1;fill-rule:nonzero;stroke:none"
         id="path263" /><path
         d="M 471.184,481.156 L 460.602,481.156 L 460.602,449.504 C 460.602,441.523 462.07,439.43 467.711,439.43 C 469.199,439.43 470.68,439.789 473.633,440.664 L 475.719,430.805 C 470.902,428.832 466.602,427.98 462.32,427.98 C 453.941,427.98 447.273,431.656 445.32,437.207 C 444.352,439.934 444.23,441.168 444.23,446.93 L 444.23,481.156 L 437.938,481.156 L 437.938,492.477 L 444.23,492.477 C 444.23,498.625 444.23,502.695 444.82,507.398 L 461.566,511.562 C 460.961,505.793 460.602,498.883 460.602,492.477 L 475.352,492.477 L 471.184,481.156"
         style="fill:#231f20;fill-opacity:1;fill-rule:nonzero;stroke:none"
         id="path265" /><path
         d="M 496.656,493.492 L 507.605,456.676 C 508.715,452.82 510.934,443.625 510.934,443.625 C 510.934,443.625 512.172,450.613 512.914,453.699 C 513.418,455.812 514.391,459.488 515.359,462.434 L 524.848,492.477 L 542.219,492.477 L 519.324,428.461 C 515.016,416.273 511.809,410.996 507.262,407.656 C 503.059,404.562 497.621,402.59 491.992,401.855 L 486.305,412.715 C 489.875,413.691 494.07,415.156 496.527,416.875 C 498.359,418.246 499.867,419.965 501.191,422.066 C 502.793,424.664 503.312,425.762 504.773,429.449 L 500.605,429.449 C 498.625,435.359 495.312,445.227 494.695,447.164 L 479.781,491.504 L 496.656,493.492"
         style="fill:#231f20;fill-opacity:1;fill-rule:nonzero;stroke:none"
         id="path267" /><path
         d="M 608.438,484.23 C 613.457,478.336 615.684,471.41 615.684,461.207 C 615.684,450.387 613.223,442.988 607.82,436.82 C 603.027,431.422 596.738,428.09 587.012,428.09 C 569.895,428.09 558.672,440.898 558.672,460.715 C 558.672,480.551 570.012,493.73 587.012,493.73 C 595.996,493.73 603.027,490.641 608.438,484.23 z M 578.77,475.129 C 577.645,471.781 577.043,467.375 577.043,461.098 C 577.043,453.812 577.773,448.414 579.133,445.227 C 580.605,441.762 584.316,440.027 587.48,440.027 C 594.641,440.027 597.715,446.43 597.715,461.328 C 597.715,469.824 596.621,475.367 594.395,478.199 C 592.812,480.293 590.215,481.523 587.246,481.523 C 583.34,481.523 580.137,479.07 578.77,475.129"
         style="fill:#231f20;fill-opacity:1;fill-rule:nonzero;stroke:none"
         id="path269" /><path
         d="M 650.781,508.645 C 646.609,508.645 643.887,506.023 643.887,501.484 L 643.887,492.477 L 659.902,492.477 L 655.723,481.156 L 644.016,481.156 L 644.016,429.449 L 627.871,429.449 L 627.871,481.156 L 622.219,481.156 L 622.219,492.477 L 628.242,492.477 C 627.871,495.098 627.617,498.281 627.617,501.086 C 627.617,513.547 635.027,520.703 647.969,520.703 C 653.367,520.703 657.812,519.59 662.852,516.738 L 657.578,506.523 C 653.965,508.258 652.734,508.645 650.781,508.645"
         style="fill:#231f20;fill-opacity:1;fill-rule:nonzero;stroke:none"
         id="path271" /><path
         d="M 398.004,256.66 C 398.004,257.402 398.004,258.105 398.004,258.848 L 398.73,300.664 C 398.965,314.043 398.238,317.949 396.559,323.066 C 391.672,336.895 377.32,344.707 356.43,344.707 C 344.977,344.707 334.535,342.52 322.379,337.402 C 313.637,333.77 308.762,331.316 302.191,327.188 L 316.059,303.816 C 329.414,312.832 341.586,317.949 352.043,317.949 C 363.949,317.949 366.648,313.301 366.648,299.473 L 366.648,294.355 C 363.949,294.59 361.762,294.59 359.32,294.59 C 319.707,294.59 299.535,280.996 299.535,251.797 C 299.535,227.031 314.586,212.891 342.336,212.891 C 352.535,212.891 361.293,215.32 367.379,219.719 C 369.789,221.406 372.477,223.848 374.898,226.289 C 378.051,219.949 384.855,214.355 392.41,211.172 L 409.664,231.133 C 400.191,238.191 398.004,243.293 398.004,256.66 z M 365.668,245.242 C 360.797,239.871 354.727,236.738 348.668,236.738 C 340.375,236.738 334.262,243.293 334.262,253.008 C 334.262,267.844 342.102,271.992 364.68,271.992 L 366.152,271.992 L 365.668,245.242 z M 199.82,237.246 C 188.637,237.246 185.73,241.367 185.73,257.148 L 185.73,319.648 L 206.645,319.648 L 214.895,342.004 L 185.73,342.004 C 185.73,350.32 186.074,358.992 186.625,367.234 L 154.145,367.234 C 153.398,359.629 153.375,352.305 153.375,342.004 L 140.98,342.004 L 140.98,319.648 L 153.375,319.648 L 153.375,252.062 C 153.375,240.625 153.648,238.191 155.574,232.832 C 159.488,221.895 172.582,214.609 189.133,214.609 C 197.641,214.609 206.152,216.309 215.652,220.195 L 211.492,239.629 C 205.668,237.961 202.75,237.246 199.82,237.246 z M 289.059,344.949 C 285.434,344.949 281.059,344.199 278.375,342.969 C 272.285,340.312 264.508,333.516 259.895,327.188 C 259.398,334.258 257.703,339.824 254.77,344.949 L 225.598,337.148 C 228.266,330.117 230.234,317.48 230.234,300.664 L 230.234,217.527 L 262.812,217.527 L 262.812,305.559 C 268.895,312.578 275.469,315.996 282.738,315.996 C 286.418,315.996 289.059,315.273 292.25,313.574 L 301.215,342.266 C 296.148,344.453 293.93,344.949 289.059,344.949 z M 91.3828,321.094 L 70.9453,326.688 C 56.8359,330.574 52.25,335 52.25,343.73 C 52.25,355.156 61.9727,363.191 75.8125,363.191 C 88.4453,363.191 99.9062,359.512 115.203,350.293 L 131.246,374.578 C 116.441,385.312 95.5273,391.621 74.8438,391.621 C 39.0859,391.621 14.3008,370.203 14.3008,339.348 C 14.3008,329.844 16.7227,321.094 21.3398,313.574 C 27.4375,303.359 37.8867,296.777 54.6719,292.148 L 73.3828,287.051 C 88.4453,282.93 95.5273,276.113 95.5273,265.188 C 95.5273,250.117 85.3086,242.078 65.8398,242.078 C 48.8086,242.078 35.2148,247.441 19.4102,255.703 L 6.76953,229.199 C 23.7891,219.473 45.1875,213.879 64.3789,213.879 C 106.477,213.879 134.188,236.477 134.188,270.762 C 134.188,295.793 119.102,313.574 91.3828,321.094 z M 471.422,237.246 C 460.227,237.246 457.32,241.367 457.32,257.148 L 457.32,319.648 L 478.238,319.648 L 486.5,342.004 L 457.32,342.004 C 457.32,350.32 457.652,358.992 458.227,367.234 L 425.719,367.234 C 425.004,359.629 424.988,352.305 424.988,342.004 L 412.613,342.004 L 412.613,319.648 L 424.988,319.648 L 424.988,252.062 C 424.988,240.625 425.238,238.191 427.168,232.832 C 431.051,221.895 444.199,214.609 460.723,214.609 C 469.234,214.609 477.77,216.309 487.242,220.195 L 483.109,239.629 C 477.262,237.961 474.34,237.246 471.422,237.246 z M 772.695,236.953 C 770.02,236.953 767.355,238.191 766.133,240.391 C 764.18,243.789 763.953,246.699 763.953,268.105 L 763.953,365.105 C 763.953,369.543 763.906,380.52 763.855,383.867 L 730.039,383.867 C 730.48,376.965 730.637,362.285 730.637,352.48 L 730.637,259.57 C 730.637,241.848 731.094,237.961 733.523,231.621 C 737.461,221.172 748.633,214.609 762.5,214.609 C 769.531,214.609 776.348,215.82 781.953,218.008 L 776.348,237.461 C 774.629,236.953 773.906,236.953 772.695,236.953 z M 1011.68,383.867 L 979.355,383.867 L 979.355,354.648 C 979.355,347.363 979.836,338.848 980.312,336.191 C 974.238,341.055 967.207,343.223 958.203,343.223 C 926.602,343.223 904.961,316.477 904.961,277.578 C 904.961,238.926 924.895,214.355 956.504,214.355 C 967.676,214.355 977.18,217.754 985.195,224.805 C 985.684,221.406 986.172,219.473 987.129,217.527 L 1016.28,217.527 C 1014.13,222.371 1011.68,232.344 1011.68,262.988 L 1011.68,383.867 z M 979.836,249.871 C 976.66,245.957 969.863,241.848 963.77,241.848 C 946.758,241.848 941.184,250.574 941.184,277.344 C 941.184,305.039 947.5,317.207 962.09,317.207 C 967.93,317.207 973.73,314.531 979.836,309.188 L 979.836,249.871 z M 569.688,345.422 C 557.031,345.422 542.91,340.059 534.391,332.051 C 534.391,333.516 534.898,338.605 534.898,342.52 L 534.898,383.867 L 501.742,383.867 C 501.781,381.965 501.836,363.398 501.836,361.465 L 501.836,217.527 L 534.898,217.527 L 534.898,306.758 C 542.195,313.301 552.66,318.184 560.684,318.184 C 569.91,318.184 573.328,313.574 573.328,301.152 L 573.328,217.527 L 605.168,217.527 L 605.168,304.578 C 605.168,316.477 604.453,320.625 602.012,327.676 C 598.113,338.605 585.461,345.422 569.688,345.422 z M 1140.31,269.562 C 1140.31,271.758 1140.31,274.414 1140.31,277.09 C 1140.31,303.105 1135.21,319.902 1123.79,331.555 C 1115.74,339.824 1102.15,344.707 1087.81,344.707 C 1071.27,344.707 1058.86,339.348 1048.67,327.91 C 1037.71,315.742 1033.11,300.93 1033.11,278.555 C 1033.11,239.395 1056.17,214.109 1091.94,214.109 C 1109.43,214.109 1124.51,219.719 1138.85,231.367 L 1126.21,250.801 C 1116.25,242.559 1105.78,238.418 1094.63,238.418 C 1077.81,238.418 1068.36,249.375 1068.36,268.574 L 1068.36,269.562 L 1140.31,269.562 z M 1068.81,293.879 C 1068.81,311.152 1075.89,320.859 1088.26,320.859 C 1094.84,320.859 1099.47,318.438 1102.64,313.574 C 1105.55,308.945 1106.5,304.082 1106.5,294.863 L 1106.5,293.379 L 1068.81,293.379 L 1068.81,293.879 z M 702.668,249.609 C 694.668,242.559 687.852,239.395 680.293,239.395 C 674.707,239.395 669.109,242.078 665.703,246.453 C 661.582,251.797 659.402,261.531 659.402,277.832 C 659.402,307.012 665.977,319.648 680.527,319.648 C 686.621,319.648 693.672,315.996 700.242,309.902 L 716.055,331.316 C 710.691,335.945 708.516,337.629 703.879,340.059 C 697.109,343.73 688.105,345.691 679.805,345.691 C 669.348,345.691 657.207,342.004 648.906,336.406 C 634.336,326.445 623.379,307.48 623.379,278.809 C 623.379,238.418 643.359,214.609 677.637,214.609 C 689.551,214.609 699.27,217.297 708.035,222.371 C 712.422,225.059 714.59,226.758 719.453,231.621 L 704.629,251.316 L 702.668,249.609 z M 870.684,342.004 L 851.953,282.688 C 850.02,276.836 848.059,269.562 847.109,265.41 C 845.645,259.316 843.184,245.469 843.184,245.469 C 843.184,245.469 838.848,263.711 836.66,271.25 L 815.012,343.984 L 781.688,340.059 L 811.113,252.527 C 812.324,248.633 818.906,229.199 822.773,217.527 L 831.074,217.527 C 828.137,210.242 827.168,208.047 823.984,202.922 C 821.328,198.801 818.398,195.41 814.746,192.734 C 809.883,189.324 801.621,186.395 794.59,184.453 L 805.762,163.047 C 816.934,164.512 827.656,168.418 835.918,174.473 C 844.922,181.023 851.23,191.523 859.766,215.559 L 904.98,342.004 L 870.684,342.004"
         style="fill:#231f20;fill-opacity:1;fill-rule:nonzero;stroke:none"
         id="path273" /><path
         d="M 95.7969,135 C 87.5977,141.758 79.0391,144.824 69.3711,144.824 C 61.8984,144.824 55.5312,142.637 51.1836,138.457 C 42.6367,130.293 40.4375,116.621 40.4375,97.6758 C 40.4375,79.6406 43.5469,68.0078 49.918,61.6406 C 54.625,57.0703 61.5391,54.5703 69.75,54.5703 C 75.4102,54.5703 79.9453,55.4297 84.1797,57.6367 L 84.1797,86.4062 L 64.8203,86.4062 L 61.5391,107.148 L 110.523,107.148 L 110.523,46.7188 C 97.6133,39.043 83.375,35.4219 68.4766,35.4219 C 49.5078,35.4219 35.5195,41.6211 25.3203,54.707 C 16.0625,66.5234 11.8359,80.0391 11.8359,98.9453 C 11.8359,125.723 20.6055,144.656 38.2695,156.477 C 47.5352,162.645 57.0078,165.391 69.0469,165.391 C 84.3398,165.391 98.1445,160.488 109.262,150.867 L 95.7969,135"
         style="fill:#231f20;fill-opacity:1;fill-rule:nonzero;stroke:none"
         id="path275" /><path
         d="M 154.977,147.371 L 154.977,74.7656 C 154.977,58.7305 155.137,56.543 156.57,53.9844 C 157.512,52.3438 159.488,51.4258 161.523,51.4258 C 162.395,51.4258 162.965,51.4258 164.211,51.7773 L 168.406,37.2461 C 164.211,35.6055 159.137,34.707 153.887,34.707 C 143.477,34.707 135.113,39.6406 132.195,47.4609 C 130.355,52.1484 130.016,55.0898 130.016,68.3672 L 130.016,137.93 C 130.016,150.098 129.664,157.578 128.738,165.945 L 153.691,171.602 C 154.57,166.523 154.977,160.488 154.977,147.371"
         style="fill:#231f20;fill-opacity:1;fill-rule:nonzero;stroke:none"
         id="path277" /><path
         d="M 194.246,126.602 C 203.363,130.469 211.195,132.109 219.711,132.109 C 235.387,132.109 246.121,126.23 249.781,115.906 C 251.055,112.078 251.625,109.16 251.41,99.1602 L 250.867,67.8516 C 250.867,67.2852 250.867,66.7383 250.867,66.1992 C 250.867,56.1914 252.504,52.3438 259.602,47.0508 L 246.703,32.1484 C 241.035,34.5117 235.941,38.6914 233.578,43.457 C 231.746,41.6211 229.77,39.7734 227.953,38.5352 C 223.398,35.2344 216.852,33.4297 209.215,33.4297 C 188.461,33.4297 177.152,43.9766 177.152,62.5508 C 177.152,84.4023 192.27,94.5898 221.91,94.5898 C 223.75,94.5898 225.367,94.5898 227.383,94.3945 L 227.383,98.2148 C 227.383,108.621 225.367,112.078 216.453,112.078 C 208.621,112.078 199.535,108.254 189.516,101.543 L 179.164,118.992 C 184.07,122.051 187.688,123.895 194.246,126.602 z M 225.941,77.6562 C 209.027,77.6562 203.215,74.5195 203.215,63.457 C 203.215,56.1914 207.699,51.2773 213.926,51.2773 C 218.484,51.2773 223.02,53.6445 226.656,57.6367 L 227.031,77.6562 L 225.941,77.6562"
         style="fill:#231f20;fill-opacity:1;fill-rule:nonzero;stroke:none"
         id="path279" /><path
         d="M 329.145,107.5 C 319.871,112.246 313.137,114.258 306.223,114.258 C 299.102,114.258 294.387,110.605 294.387,105.137 C 294.387,100.41 297.465,97.8516 306.039,95.6836 L 317.324,92.7539 C 328.785,89.8555 332.602,86.4062 335.859,82.1562 C 339.348,77.8203 340.996,72.5508 340.996,66.3789 C 340.996,47.0508 324.973,33.9648 301.098,33.9648 C 289.645,33.9648 277.102,37.6172 263.418,44.7266 L 272.18,62.5508 C 279.633,58.0273 292.566,51.9727 303.102,51.9727 C 310.027,51.9727 315.508,56.543 315.508,62.5508 C 315.508,68.9258 310.953,72.2188 301.098,74.0312 L 290.203,76.0078 C 284.008,77.1094 276.352,81.4844 273.086,85.4805 C 269.797,89.4922 267.828,96.2305 267.828,102.246 C 267.828,120.449 282.188,132.617 303.855,132.617 C 318.762,132.617 328.574,128.098 337.172,123.895 L 329.145,107.5"
         style="fill:#231f20;fill-opacity:1;fill-rule:nonzero;stroke:none"
         id="path281" /><path
         d="M 448.207,119.883 C 442.922,114.961 437.809,112.988 431.125,112.988 C 428.73,112.988 426.16,113.359 424.727,113.523 C 428.344,109.16 430.176,104.395 430.176,98.2148 C 430.176,82.1562 415.625,70.5352 395.777,70.5352 C 394.668,70.5352 393.969,70.5352 392.125,70.7227 C 385.938,67.8516 382.484,65.6367 382.484,63.0977 C 382.484,61.8086 383.93,60.918 386.508,60.918 L 399.59,60.7305 C 413.789,60.5195 421.262,58.3594 427.809,52.3438 C 433.293,47.2461 435.84,40.8789 435.84,32.5195 C 435.84,24.668 433.484,18.6719 428.344,13.2227 C 420.188,4.47266 406.137,1.19141 391.605,1.19141 C 378.32,1.19141 364.641,3.37891 356.273,11.2109 C 351.191,15.9297 348.605,21.4258 348.605,27.7539 C 348.605,32.8711 349.918,35.4219 350.785,37.2461 L 373.395,37.2461 C 372.477,35.0586 372.285,33.8008 372.285,31.2383 C 372.285,23.7617 378.473,19.7852 389.762,19.7852 C 395.941,19.7852 401.215,20.4688 405.062,22.8516 C 408.715,25.0664 411.035,28.5156 411.035,32.3438 C 411.035,40.7031 403.617,43.2617 393.969,43.457 L 383.594,43.6133 C 372.652,43.7891 365.547,44.7266 361.168,46.543 C 356.801,48.1523 354.062,52.3438 354.062,58.7305 C 354.062,64.707 355.879,70.3906 371.211,74.375 C 357.727,77.8203 351.191,86.4062 351.191,100.266 C 351.191,119.363 366.648,131.738 390.52,131.738 C 395.777,131.738 400.488,131.016 407.246,129.355 C 412.336,128.098 415.625,127.344 418.707,127.344 C 425.445,127.344 432.383,130.293 438.023,135.352 L 448.207,119.883 z M 375.758,100.039 C 375.758,90.6133 381.562,86.7383 390.129,86.7383 C 399.789,86.7383 405.062,91.5039 405.062,100.039 C 405.062,108.789 399.59,113.867 390.316,113.867 C 381.031,113.867 375.758,108.789 375.758,100.039"
         style="fill:#231f20;fill-opacity:1;fill-rule:nonzero;stroke:none"
         id="path283" /><path
         d="M 519.75,117.91 C 527.207,109.16 530.484,98.9453 530.484,83.8477 C 530.484,67.8516 526.871,56.9141 518.828,47.7734 C 511.754,39.7734 502.438,34.8828 488.066,34.8828 C 462.777,34.8828 446.188,53.8086 446.188,83.1367 C 446.188,112.434 462.922,131.914 488.066,131.914 C 501.371,131.914 511.754,127.344 519.75,117.91 z M 475.875,104.395 C 474.211,99.4922 473.328,92.9375 473.328,83.6523 C 473.328,72.9219 474.43,64.9336 476.438,60.1758 C 478.605,55.0898 484.066,52.5195 488.801,52.5195 C 499.359,52.5195 503.902,62.0117 503.902,84.043 C 503.902,96.6094 502.27,104.758 498.992,108.953 C 496.645,112.078 492.781,113.867 488.418,113.867 C 482.633,113.867 477.887,110.266 475.875,104.395"
         style="fill:#231f20;fill-opacity:1;fill-rule:nonzero;stroke:none"
         id="path285" /><path
         d="M 556.504,131.172 L 564.141,95.3125 C 566.523,84.5781 569.434,66.3789 569.434,66.3789 C 569.434,66.3789 571.797,82.9609 576.199,98.75 L 584.902,130.059 L 607.859,130.059 L 615.332,99.3359 C 619.52,82.0195 622.219,66.3789 622.219,66.3789 C 622.773,70.3906 624.766,84.9219 627.305,96.7695 L 634.434,130.059 L 659.57,130.059 L 632.988,36.875 L 610.566,36.875 L 602.219,68.9258 C 600.215,76.4062 598.02,85.3125 596.941,91.5039 C 596.211,95.8789 596.008,97.1406 595.461,100.762 C 594.961,96.7695 594.734,95.5078 593.281,88.7617 C 591.453,80.7031 587.473,64.707 585.273,56.0156 L 580.559,36.875 L 557.773,36.875 L 532.289,128.457 L 556.504,131.172"
         style="fill:#231f20;fill-opacity:1;fill-rule:nonzero;stroke:none"
         id="path287" /></g></g></svg>